<mxfile host="Electron" modified="2025-09-23T00:24:43.511Z" agent="Mozilla/5.0 (Windows NT 10.0; Win64; x64) AppleWebKit/537.36 (KHTML, like Gecko) draw.io/21.2.1 Chrome/112.0.5615.87 Electron/24.1.2 Safari/537.36" etag="MuZLZO2c_4L0wMPEyRPV" version="21.2.1" type="device">
  <diagram name="PÃ¡gina-1" id="lQoBPahMHYeLpqBA_cDa">
    <mxGraphModel dx="487" dy="-1007" grid="1" gridSize="10" guides="1" tooltips="1" connect="1" arrows="1" fold="1" page="0" pageScale="1" pageWidth="10000000" pageHeight="10000000" math="0" shadow="0">
      <root>
        <mxCell id="0" />
        <mxCell id="1" parent="0" />
        <mxCell id="3SxP4JErZeRJ_X0oeSa_-616" value="" style="shape=rect;shadow=0;html=1;direction=south;" vertex="1" parent="1">
          <mxGeometry x="2360" y="2880" width="350" height="80" as="geometry" />
        </mxCell>
        <mxCell id="3SxP4JErZeRJ_X0oeSa_-499" value="" style="verticalLabelPosition=bottom;html=1;verticalAlign=top;align=center;shape=mxgraph.floorplan.office_chair;shadow=0;direction=west;container=0;" vertex="1" parent="1">
          <mxGeometry x="1977.5" y="2860" width="40" height="43" as="geometry" />
        </mxCell>
        <mxCell id="3SxP4JErZeRJ_X0oeSa_-468" value="" style="shape=rect;shadow=0;html=1;" vertex="1" parent="1">
          <mxGeometry x="2880" y="2080" width="80" height="230" as="geometry" />
        </mxCell>
        <mxCell id="3SxP4JErZeRJ_X0oeSa_-355" value="" style="verticalLabelPosition=bottom;html=1;verticalAlign=top;align=center;shape=mxgraph.floorplan.office_chair;shadow=0;direction=south;container=0;" vertex="1" parent="1">
          <mxGeometry x="2378" y="2090" width="43" height="40" as="geometry" />
        </mxCell>
        <mxCell id="3SxP4JErZeRJ_X0oeSa_-422" value="" style="shape=rect;shadow=0;html=1;" vertex="1" parent="1">
          <mxGeometry x="2400" y="2080" width="80" height="240" as="geometry" />
        </mxCell>
        <mxCell id="3SxP4JErZeRJ_X0oeSa_-190" value="" style="shape=rect;shadow=0;html=1;direction=south;" vertex="1" parent="1">
          <mxGeometry x="1770" y="2880" width="350" height="80" as="geometry" />
        </mxCell>
        <mxCell id="ZksiL33y0k4ibd8hHYUo-1" value="" style="verticalLabelPosition=bottom;html=1;verticalAlign=top;align=center;shape=mxgraph.floorplan.room;fillColor=strokeColor;container=0;" parent="1" vertex="1">
          <mxGeometry x="1270" y="2070" width="1700" height="900" as="geometry" />
        </mxCell>
        <mxCell id="3SxP4JErZeRJ_X0oeSa_-325" value="" style="verticalLabelPosition=bottom;html=1;verticalAlign=top;align=center;shape=mxgraph.floorplan.office_chair;shadow=0;direction=north;container=0;" vertex="1" parent="1">
          <mxGeometry x="2060" y="2090" width="43" height="40" as="geometry" />
        </mxCell>
        <mxCell id="3SxP4JErZeRJ_X0oeSa_-326" value="" style="verticalLabelPosition=bottom;html=1;verticalAlign=top;align=center;shape=mxgraph.floorplan.office_chair;shadow=0;direction=north;container=0;" vertex="1" parent="1">
          <mxGeometry x="2060" y="2170" width="43" height="40" as="geometry" />
        </mxCell>
        <mxCell id="3SxP4JErZeRJ_X0oeSa_-327" value="" style="shape=rect;shadow=0;html=1;" vertex="1" parent="1">
          <mxGeometry x="2000" y="2080" width="80" height="250" as="geometry" />
        </mxCell>
        <mxCell id="3SxP4JErZeRJ_X0oeSa_-328" value="" style="verticalLabelPosition=bottom;html=1;verticalAlign=top;align=center;shape=mxgraph.floorplan.workstation;shadow=0;flipV=1;direction=north;container=0;" vertex="1" parent="1">
          <mxGeometry x="2040" y="2085" width="40" height="50" as="geometry" />
        </mxCell>
        <mxCell id="3SxP4JErZeRJ_X0oeSa_-329" value="" style="fontColor=#ffffff;verticalAlign=top;verticalLabelPosition=bottom;labelPosition=center;align=center;html=1;outlineConnect=0;fillColor=#000000;strokeColor=#000000;gradientDirection=north;strokeWidth=2;shape=mxgraph.networks.phone_1;direction=north;container=0;" vertex="1" parent="1">
          <mxGeometry x="2060" y="2140" width="15" height="15" as="geometry" />
        </mxCell>
        <mxCell id="3SxP4JErZeRJ_X0oeSa_-330" value="" style="verticalLabelPosition=bottom;html=1;verticalAlign=top;align=center;shape=mxgraph.floorplan.workstation;shadow=0;flipV=1;direction=north;container=0;" vertex="1" parent="1">
          <mxGeometry x="2040" y="2165" width="40" height="50" as="geometry" />
        </mxCell>
        <mxCell id="3SxP4JErZeRJ_X0oeSa_-331" value="" style="fontColor=#ffffff;verticalAlign=top;verticalLabelPosition=bottom;labelPosition=center;align=center;html=1;outlineConnect=0;fillColor=#000000;strokeColor=#000000;gradientDirection=north;strokeWidth=2;shape=mxgraph.networks.phone_1;direction=north;container=0;" vertex="1" parent="1">
          <mxGeometry x="2060" y="2220" width="15" height="15" as="geometry" />
        </mxCell>
        <mxCell id="3SxP4JErZeRJ_X0oeSa_-332" value="" style="verticalLabelPosition=bottom;html=1;verticalAlign=top;align=center;shape=mxgraph.floorplan.office_chair;shadow=0;direction=north;container=0;" vertex="1" parent="1">
          <mxGeometry x="2060" y="2255" width="43" height="40" as="geometry" />
        </mxCell>
        <mxCell id="3SxP4JErZeRJ_X0oeSa_-333" value="" style="verticalLabelPosition=bottom;html=1;verticalAlign=top;align=center;shape=mxgraph.floorplan.workstation;shadow=0;flipV=1;direction=north;container=0;" vertex="1" parent="1">
          <mxGeometry x="2040" y="2250" width="40" height="50" as="geometry" />
        </mxCell>
        <mxCell id="3SxP4JErZeRJ_X0oeSa_-334" value="" style="fontColor=#ffffff;verticalAlign=top;verticalLabelPosition=bottom;labelPosition=center;align=center;html=1;outlineConnect=0;fillColor=#000000;strokeColor=#000000;gradientDirection=north;strokeWidth=2;shape=mxgraph.networks.phone_1;direction=north;container=0;" vertex="1" parent="1">
          <mxGeometry x="2060" y="2305" width="15" height="15" as="geometry" />
        </mxCell>
        <mxCell id="3SxP4JErZeRJ_X0oeSa_-346" value="" style="verticalLabelPosition=bottom;html=1;verticalAlign=top;align=center;shape=mxgraph.floorplan.office_chair;shadow=0;direction=north;container=0;" vertex="1" parent="1">
          <mxGeometry x="2062" y="2465" width="43" height="40" as="geometry" />
        </mxCell>
        <mxCell id="3SxP4JErZeRJ_X0oeSa_-347" value="" style="shape=rect;shadow=0;html=1;" vertex="1" parent="1">
          <mxGeometry x="2002" y="2400" width="80" height="380" as="geometry" />
        </mxCell>
        <mxCell id="3SxP4JErZeRJ_X0oeSa_-350" value="" style="verticalLabelPosition=bottom;html=1;verticalAlign=top;align=center;shape=mxgraph.floorplan.workstation;shadow=0;flipV=1;direction=north;container=0;" vertex="1" parent="1">
          <mxGeometry x="2042" y="2460" width="40" height="50" as="geometry" />
        </mxCell>
        <mxCell id="3SxP4JErZeRJ_X0oeSa_-351" value="" style="fontColor=#ffffff;verticalAlign=top;verticalLabelPosition=bottom;labelPosition=center;align=center;html=1;outlineConnect=0;fillColor=#000000;strokeColor=#000000;gradientDirection=north;strokeWidth=2;shape=mxgraph.networks.phone_1;direction=north;container=0;" vertex="1" parent="1">
          <mxGeometry x="2062" y="2515" width="15" height="15" as="geometry" />
        </mxCell>
        <mxCell id="3SxP4JErZeRJ_X0oeSa_-352" value="" style="verticalLabelPosition=bottom;html=1;verticalAlign=top;align=center;shape=mxgraph.floorplan.office_chair;shadow=0;direction=north;container=0;" vertex="1" parent="1">
          <mxGeometry x="2062" y="2550" width="43" height="40" as="geometry" />
        </mxCell>
        <mxCell id="3SxP4JErZeRJ_X0oeSa_-353" value="" style="verticalLabelPosition=bottom;html=1;verticalAlign=top;align=center;shape=mxgraph.floorplan.workstation;shadow=0;flipV=1;direction=north;container=0;" vertex="1" parent="1">
          <mxGeometry x="2042" y="2545" width="40" height="50" as="geometry" />
        </mxCell>
        <mxCell id="3SxP4JErZeRJ_X0oeSa_-354" value="" style="fontColor=#ffffff;verticalAlign=top;verticalLabelPosition=bottom;labelPosition=center;align=center;html=1;outlineConnect=0;fillColor=#000000;strokeColor=#000000;gradientDirection=north;strokeWidth=2;shape=mxgraph.networks.phone_1;direction=north;container=0;" vertex="1" parent="1">
          <mxGeometry x="2062" y="2600" width="15" height="15" as="geometry" />
        </mxCell>
        <mxCell id="3SxP4JErZeRJ_X0oeSa_-356" value="" style="verticalLabelPosition=bottom;html=1;verticalAlign=top;align=center;shape=mxgraph.floorplan.workstation;shadow=0;flipV=1;direction=south;container=0;" vertex="1" parent="1">
          <mxGeometry x="2400" y="2085" width="40" height="50" as="geometry" />
        </mxCell>
        <mxCell id="3SxP4JErZeRJ_X0oeSa_-357" value="" style="fontColor=#ffffff;verticalAlign=top;verticalLabelPosition=bottom;labelPosition=center;align=center;html=1;outlineConnect=0;fillColor=#000000;strokeColor=#000000;gradientDirection=north;strokeWidth=2;shape=mxgraph.networks.phone_1;direction=south;container=0;" vertex="1" parent="1">
          <mxGeometry x="2406" y="2140" width="15" height="15" as="geometry" />
        </mxCell>
        <mxCell id="3SxP4JErZeRJ_X0oeSa_-359" value="" style="verticalLabelPosition=bottom;html=1;verticalAlign=top;align=center;shape=mxgraph.floorplan.office_chair;shadow=0;direction=north;container=0;" vertex="1" parent="1">
          <mxGeometry x="1820" y="2090" width="43" height="40" as="geometry" />
        </mxCell>
        <mxCell id="3SxP4JErZeRJ_X0oeSa_-360" value="" style="verticalLabelPosition=bottom;html=1;verticalAlign=top;align=center;shape=mxgraph.floorplan.office_chair;shadow=0;direction=north;container=0;" vertex="1" parent="1">
          <mxGeometry x="1820" y="2170" width="43" height="40" as="geometry" />
        </mxCell>
        <mxCell id="3SxP4JErZeRJ_X0oeSa_-361" value="" style="shape=rect;shadow=0;html=1;" vertex="1" parent="1">
          <mxGeometry x="1760" y="2080" width="80" height="250" as="geometry" />
        </mxCell>
        <mxCell id="3SxP4JErZeRJ_X0oeSa_-362" value="" style="verticalLabelPosition=bottom;html=1;verticalAlign=top;align=center;shape=mxgraph.floorplan.workstation;shadow=0;flipV=1;direction=north;container=0;" vertex="1" parent="1">
          <mxGeometry x="1800" y="2085" width="40" height="50" as="geometry" />
        </mxCell>
        <mxCell id="3SxP4JErZeRJ_X0oeSa_-363" value="" style="fontColor=#ffffff;verticalAlign=top;verticalLabelPosition=bottom;labelPosition=center;align=center;html=1;outlineConnect=0;fillColor=#000000;strokeColor=#000000;gradientDirection=north;strokeWidth=2;shape=mxgraph.networks.phone_1;direction=north;container=0;" vertex="1" parent="1">
          <mxGeometry x="1820" y="2140" width="15" height="15" as="geometry" />
        </mxCell>
        <mxCell id="3SxP4JErZeRJ_X0oeSa_-364" value="" style="verticalLabelPosition=bottom;html=1;verticalAlign=top;align=center;shape=mxgraph.floorplan.workstation;shadow=0;flipV=1;direction=north;container=0;" vertex="1" parent="1">
          <mxGeometry x="1800" y="2165" width="40" height="50" as="geometry" />
        </mxCell>
        <mxCell id="3SxP4JErZeRJ_X0oeSa_-365" value="" style="fontColor=#ffffff;verticalAlign=top;verticalLabelPosition=bottom;labelPosition=center;align=center;html=1;outlineConnect=0;fillColor=#000000;strokeColor=#000000;gradientDirection=north;strokeWidth=2;shape=mxgraph.networks.phone_1;direction=north;container=0;" vertex="1" parent="1">
          <mxGeometry x="1820" y="2220" width="15" height="15" as="geometry" />
        </mxCell>
        <mxCell id="3SxP4JErZeRJ_X0oeSa_-366" value="" style="verticalLabelPosition=bottom;html=1;verticalAlign=top;align=center;shape=mxgraph.floorplan.office_chair;shadow=0;direction=north;container=0;" vertex="1" parent="1">
          <mxGeometry x="1820" y="2255" width="43" height="40" as="geometry" />
        </mxCell>
        <mxCell id="3SxP4JErZeRJ_X0oeSa_-367" value="" style="verticalLabelPosition=bottom;html=1;verticalAlign=top;align=center;shape=mxgraph.floorplan.workstation;shadow=0;flipV=1;direction=north;container=0;" vertex="1" parent="1">
          <mxGeometry x="1800" y="2250" width="40" height="50" as="geometry" />
        </mxCell>
        <mxCell id="3SxP4JErZeRJ_X0oeSa_-368" value="" style="fontColor=#ffffff;verticalAlign=top;verticalLabelPosition=bottom;labelPosition=center;align=center;html=1;outlineConnect=0;fillColor=#000000;strokeColor=#000000;gradientDirection=north;strokeWidth=2;shape=mxgraph.networks.phone_1;direction=north;container=0;" vertex="1" parent="1">
          <mxGeometry x="1820" y="2305" width="15" height="15" as="geometry" />
        </mxCell>
        <mxCell id="3SxP4JErZeRJ_X0oeSa_-383" value="" style="verticalLabelPosition=bottom;html=1;verticalAlign=top;align=center;shape=mxgraph.floorplan.office_chair;shadow=0;direction=north;container=0;" vertex="1" parent="1">
          <mxGeometry x="1580" y="2090" width="43" height="40" as="geometry" />
        </mxCell>
        <mxCell id="3SxP4JErZeRJ_X0oeSa_-384" value="" style="verticalLabelPosition=bottom;html=1;verticalAlign=top;align=center;shape=mxgraph.floorplan.office_chair;shadow=0;direction=north;container=0;" vertex="1" parent="1">
          <mxGeometry x="1580" y="2170" width="43" height="40" as="geometry" />
        </mxCell>
        <mxCell id="3SxP4JErZeRJ_X0oeSa_-385" value="" style="shape=rect;shadow=0;html=1;" vertex="1" parent="1">
          <mxGeometry x="1520" y="2080" width="80" height="250" as="geometry" />
        </mxCell>
        <mxCell id="3SxP4JErZeRJ_X0oeSa_-386" value="" style="verticalLabelPosition=bottom;html=1;verticalAlign=top;align=center;shape=mxgraph.floorplan.workstation;shadow=0;flipV=1;direction=north;container=0;" vertex="1" parent="1">
          <mxGeometry x="1560" y="2085" width="40" height="50" as="geometry" />
        </mxCell>
        <mxCell id="3SxP4JErZeRJ_X0oeSa_-387" value="" style="fontColor=#ffffff;verticalAlign=top;verticalLabelPosition=bottom;labelPosition=center;align=center;html=1;outlineConnect=0;fillColor=#000000;strokeColor=#000000;gradientDirection=north;strokeWidth=2;shape=mxgraph.networks.phone_1;direction=north;container=0;" vertex="1" parent="1">
          <mxGeometry x="1580" y="2140" width="15" height="15" as="geometry" />
        </mxCell>
        <mxCell id="3SxP4JErZeRJ_X0oeSa_-388" value="" style="verticalLabelPosition=bottom;html=1;verticalAlign=top;align=center;shape=mxgraph.floorplan.workstation;shadow=0;flipV=1;direction=north;container=0;" vertex="1" parent="1">
          <mxGeometry x="1560" y="2165" width="40" height="50" as="geometry" />
        </mxCell>
        <mxCell id="3SxP4JErZeRJ_X0oeSa_-389" value="" style="fontColor=#ffffff;verticalAlign=top;verticalLabelPosition=bottom;labelPosition=center;align=center;html=1;outlineConnect=0;fillColor=#000000;strokeColor=#000000;gradientDirection=north;strokeWidth=2;shape=mxgraph.networks.phone_1;direction=north;container=0;" vertex="1" parent="1">
          <mxGeometry x="1580" y="2220" width="15" height="15" as="geometry" />
        </mxCell>
        <mxCell id="3SxP4JErZeRJ_X0oeSa_-390" value="" style="verticalLabelPosition=bottom;html=1;verticalAlign=top;align=center;shape=mxgraph.floorplan.office_chair;shadow=0;direction=north;container=0;" vertex="1" parent="1">
          <mxGeometry x="1580" y="2255" width="43" height="40" as="geometry" />
        </mxCell>
        <mxCell id="3SxP4JErZeRJ_X0oeSa_-391" value="" style="verticalLabelPosition=bottom;html=1;verticalAlign=top;align=center;shape=mxgraph.floorplan.workstation;shadow=0;flipV=1;direction=north;container=0;" vertex="1" parent="1">
          <mxGeometry x="1560" y="2250" width="40" height="50" as="geometry" />
        </mxCell>
        <mxCell id="3SxP4JErZeRJ_X0oeSa_-392" value="" style="fontColor=#ffffff;verticalAlign=top;verticalLabelPosition=bottom;labelPosition=center;align=center;html=1;outlineConnect=0;fillColor=#000000;strokeColor=#000000;gradientDirection=north;strokeWidth=2;shape=mxgraph.networks.phone_1;direction=north;container=0;" vertex="1" parent="1">
          <mxGeometry x="1580" y="2305" width="15" height="15" as="geometry" />
        </mxCell>
        <mxCell id="3SxP4JErZeRJ_X0oeSa_-423" value="" style="verticalLabelPosition=bottom;html=1;verticalAlign=top;align=center;shape=mxgraph.floorplan.office_chair;shadow=0;direction=south;container=0;" vertex="1" parent="1">
          <mxGeometry x="2378" y="2170" width="43" height="40" as="geometry" />
        </mxCell>
        <mxCell id="3SxP4JErZeRJ_X0oeSa_-424" value="" style="verticalLabelPosition=bottom;html=1;verticalAlign=top;align=center;shape=mxgraph.floorplan.workstation;shadow=0;flipV=1;direction=south;container=0;" vertex="1" parent="1">
          <mxGeometry x="2400" y="2165" width="40" height="50" as="geometry" />
        </mxCell>
        <mxCell id="3SxP4JErZeRJ_X0oeSa_-425" value="" style="fontColor=#ffffff;verticalAlign=top;verticalLabelPosition=bottom;labelPosition=center;align=center;html=1;outlineConnect=0;fillColor=#000000;strokeColor=#000000;gradientDirection=north;strokeWidth=2;shape=mxgraph.networks.phone_1;direction=south;container=0;" vertex="1" parent="1">
          <mxGeometry x="2406" y="2220" width="15" height="15" as="geometry" />
        </mxCell>
        <mxCell id="3SxP4JErZeRJ_X0oeSa_-426" value="" style="verticalLabelPosition=bottom;html=1;verticalAlign=top;align=center;shape=mxgraph.floorplan.office_chair;shadow=0;direction=south;container=0;" vertex="1" parent="1">
          <mxGeometry x="2378" y="2245" width="43" height="40" as="geometry" />
        </mxCell>
        <mxCell id="3SxP4JErZeRJ_X0oeSa_-427" value="" style="verticalLabelPosition=bottom;html=1;verticalAlign=top;align=center;shape=mxgraph.floorplan.workstation;shadow=0;flipV=1;direction=south;container=0;" vertex="1" parent="1">
          <mxGeometry x="2400" y="2240" width="40" height="50" as="geometry" />
        </mxCell>
        <mxCell id="3SxP4JErZeRJ_X0oeSa_-428" value="" style="fontColor=#ffffff;verticalAlign=top;verticalLabelPosition=bottom;labelPosition=center;align=center;html=1;outlineConnect=0;fillColor=#000000;strokeColor=#000000;gradientDirection=north;strokeWidth=2;shape=mxgraph.networks.phone_1;direction=south;container=0;" vertex="1" parent="1">
          <mxGeometry x="2406" y="2295" width="15" height="15" as="geometry" />
        </mxCell>
        <mxCell id="3SxP4JErZeRJ_X0oeSa_-430" value="" style="shape=rect;shadow=0;html=1;" vertex="1" parent="1">
          <mxGeometry x="2401" y="2400" width="80" height="370" as="geometry" />
        </mxCell>
        <mxCell id="3SxP4JErZeRJ_X0oeSa_-433" value="" style="verticalLabelPosition=bottom;html=1;verticalAlign=top;align=center;shape=mxgraph.floorplan.office_chair;shadow=0;direction=south;container=0;" vertex="1" parent="1">
          <mxGeometry x="2379" y="2460" width="43" height="40" as="geometry" />
        </mxCell>
        <mxCell id="3SxP4JErZeRJ_X0oeSa_-434" value="" style="verticalLabelPosition=bottom;html=1;verticalAlign=top;align=center;shape=mxgraph.floorplan.workstation;shadow=0;flipV=1;direction=south;container=0;" vertex="1" parent="1">
          <mxGeometry x="2401" y="2455" width="40" height="50" as="geometry" />
        </mxCell>
        <mxCell id="3SxP4JErZeRJ_X0oeSa_-435" value="" style="fontColor=#ffffff;verticalAlign=top;verticalLabelPosition=bottom;labelPosition=center;align=center;html=1;outlineConnect=0;fillColor=#000000;strokeColor=#000000;gradientDirection=north;strokeWidth=2;shape=mxgraph.networks.phone_1;direction=south;container=0;" vertex="1" parent="1">
          <mxGeometry x="2407" y="2510" width="15" height="15" as="geometry" />
        </mxCell>
        <mxCell id="3SxP4JErZeRJ_X0oeSa_-436" value="" style="verticalLabelPosition=bottom;html=1;verticalAlign=top;align=center;shape=mxgraph.floorplan.office_chair;shadow=0;direction=south;container=0;" vertex="1" parent="1">
          <mxGeometry x="2379" y="2535" width="43" height="40" as="geometry" />
        </mxCell>
        <mxCell id="3SxP4JErZeRJ_X0oeSa_-437" value="" style="verticalLabelPosition=bottom;html=1;verticalAlign=top;align=center;shape=mxgraph.floorplan.workstation;shadow=0;flipV=1;direction=south;container=0;" vertex="1" parent="1">
          <mxGeometry x="2401" y="2530" width="40" height="50" as="geometry" />
        </mxCell>
        <mxCell id="3SxP4JErZeRJ_X0oeSa_-438" value="" style="fontColor=#ffffff;verticalAlign=top;verticalLabelPosition=bottom;labelPosition=center;align=center;html=1;outlineConnect=0;fillColor=#000000;strokeColor=#000000;gradientDirection=north;strokeWidth=2;shape=mxgraph.networks.phone_1;direction=south;container=0;" vertex="1" parent="1">
          <mxGeometry x="2407" y="2585" width="15" height="15" as="geometry" />
        </mxCell>
        <mxCell id="3SxP4JErZeRJ_X0oeSa_-439" value="" style="verticalLabelPosition=bottom;html=1;verticalAlign=top;align=center;shape=mxgraph.floorplan.office_chair;shadow=0;direction=south;container=0;" vertex="1" parent="1">
          <mxGeometry x="2379" y="2610" width="43" height="40" as="geometry" />
        </mxCell>
        <mxCell id="3SxP4JErZeRJ_X0oeSa_-440" value="" style="verticalLabelPosition=bottom;html=1;verticalAlign=top;align=center;shape=mxgraph.floorplan.workstation;shadow=0;flipV=1;direction=south;container=0;" vertex="1" parent="1">
          <mxGeometry x="2401" y="2605" width="40" height="50" as="geometry" />
        </mxCell>
        <mxCell id="3SxP4JErZeRJ_X0oeSa_-441" value="" style="fontColor=#ffffff;verticalAlign=top;verticalLabelPosition=bottom;labelPosition=center;align=center;html=1;outlineConnect=0;fillColor=#000000;strokeColor=#000000;gradientDirection=north;strokeWidth=2;shape=mxgraph.networks.phone_1;direction=south;container=0;" vertex="1" parent="1">
          <mxGeometry x="2407" y="2660" width="15" height="15" as="geometry" />
        </mxCell>
        <mxCell id="3SxP4JErZeRJ_X0oeSa_-443" value="" style="verticalLabelPosition=bottom;html=1;verticalAlign=top;align=center;shape=mxgraph.floorplan.office_chair;shadow=0;direction=south;container=0;" vertex="1" parent="1">
          <mxGeometry x="2860" y="2090" width="43" height="40" as="geometry" />
        </mxCell>
        <mxCell id="3SxP4JErZeRJ_X0oeSa_-445" value="" style="verticalLabelPosition=bottom;html=1;verticalAlign=top;align=center;shape=mxgraph.floorplan.workstation;shadow=0;flipV=1;direction=south;container=0;" vertex="1" parent="1">
          <mxGeometry x="2882" y="2085" width="40" height="50" as="geometry" />
        </mxCell>
        <mxCell id="3SxP4JErZeRJ_X0oeSa_-446" value="" style="fontColor=#ffffff;verticalAlign=top;verticalLabelPosition=bottom;labelPosition=center;align=center;html=1;outlineConnect=0;fillColor=#000000;strokeColor=#000000;gradientDirection=north;strokeWidth=2;shape=mxgraph.networks.phone_1;direction=south;container=0;" vertex="1" parent="1">
          <mxGeometry x="2888" y="2140" width="15" height="15" as="geometry" />
        </mxCell>
        <mxCell id="3SxP4JErZeRJ_X0oeSa_-447" value="" style="verticalLabelPosition=bottom;html=1;verticalAlign=top;align=center;shape=mxgraph.floorplan.office_chair;shadow=0;direction=south;container=0;" vertex="1" parent="1">
          <mxGeometry x="2860" y="2170" width="43" height="40" as="geometry" />
        </mxCell>
        <mxCell id="3SxP4JErZeRJ_X0oeSa_-448" value="" style="verticalLabelPosition=bottom;html=1;verticalAlign=top;align=center;shape=mxgraph.floorplan.workstation;shadow=0;flipV=1;direction=south;container=0;" vertex="1" parent="1">
          <mxGeometry x="2882" y="2165" width="40" height="50" as="geometry" />
        </mxCell>
        <mxCell id="3SxP4JErZeRJ_X0oeSa_-449" value="" style="fontColor=#ffffff;verticalAlign=top;verticalLabelPosition=bottom;labelPosition=center;align=center;html=1;outlineConnect=0;fillColor=#000000;strokeColor=#000000;gradientDirection=north;strokeWidth=2;shape=mxgraph.networks.phone_1;direction=south;container=0;" vertex="1" parent="1">
          <mxGeometry x="2888" y="2220" width="15" height="15" as="geometry" />
        </mxCell>
        <mxCell id="3SxP4JErZeRJ_X0oeSa_-450" value="" style="verticalLabelPosition=bottom;html=1;verticalAlign=top;align=center;shape=mxgraph.floorplan.office_chair;shadow=0;direction=south;container=0;" vertex="1" parent="1">
          <mxGeometry x="2860" y="2245" width="43" height="40" as="geometry" />
        </mxCell>
        <mxCell id="3SxP4JErZeRJ_X0oeSa_-451" value="" style="verticalLabelPosition=bottom;html=1;verticalAlign=top;align=center;shape=mxgraph.floorplan.workstation;shadow=0;flipV=1;direction=south;container=0;" vertex="1" parent="1">
          <mxGeometry x="2882" y="2240" width="40" height="50" as="geometry" />
        </mxCell>
        <mxCell id="3SxP4JErZeRJ_X0oeSa_-452" value="" style="fontColor=#ffffff;verticalAlign=top;verticalLabelPosition=bottom;labelPosition=center;align=center;html=1;outlineConnect=0;fillColor=#000000;strokeColor=#000000;gradientDirection=north;strokeWidth=2;shape=mxgraph.networks.phone_1;direction=south;container=0;" vertex="1" parent="1">
          <mxGeometry x="2888" y="2290" width="15" height="15" as="geometry" />
        </mxCell>
        <mxCell id="3SxP4JErZeRJ_X0oeSa_-469" value="" style="shape=rect;shadow=0;html=1;" vertex="1" parent="1">
          <mxGeometry x="2640" y="2080" width="80" height="230" as="geometry" />
        </mxCell>
        <mxCell id="3SxP4JErZeRJ_X0oeSa_-470" value="" style="shape=rect;shadow=0;html=1;" vertex="1" parent="1">
          <mxGeometry x="2640" y="2399.25" width="80" height="360" as="geometry" />
        </mxCell>
        <mxCell id="3SxP4JErZeRJ_X0oeSa_-471" value="" style="verticalLabelPosition=bottom;html=1;verticalAlign=top;align=center;shape=mxgraph.floorplan.office_chair;shadow=0;direction=south;container=0;" vertex="1" parent="1">
          <mxGeometry x="2620" y="2090" width="43" height="40" as="geometry" />
        </mxCell>
        <mxCell id="3SxP4JErZeRJ_X0oeSa_-472" value="" style="verticalLabelPosition=bottom;html=1;verticalAlign=top;align=center;shape=mxgraph.floorplan.workstation;shadow=0;flipV=1;direction=south;container=0;" vertex="1" parent="1">
          <mxGeometry x="2642" y="2085" width="40" height="50" as="geometry" />
        </mxCell>
        <mxCell id="3SxP4JErZeRJ_X0oeSa_-473" value="" style="fontColor=#ffffff;verticalAlign=top;verticalLabelPosition=bottom;labelPosition=center;align=center;html=1;outlineConnect=0;fillColor=#000000;strokeColor=#000000;gradientDirection=north;strokeWidth=2;shape=mxgraph.networks.phone_1;direction=south;container=0;" vertex="1" parent="1">
          <mxGeometry x="2648" y="2140" width="15" height="15" as="geometry" />
        </mxCell>
        <mxCell id="3SxP4JErZeRJ_X0oeSa_-474" value="" style="verticalLabelPosition=bottom;html=1;verticalAlign=top;align=center;shape=mxgraph.floorplan.office_chair;shadow=0;direction=south;container=0;" vertex="1" parent="1">
          <mxGeometry x="2620" y="2170" width="43" height="40" as="geometry" />
        </mxCell>
        <mxCell id="3SxP4JErZeRJ_X0oeSa_-475" value="" style="verticalLabelPosition=bottom;html=1;verticalAlign=top;align=center;shape=mxgraph.floorplan.workstation;shadow=0;flipV=1;direction=south;container=0;" vertex="1" parent="1">
          <mxGeometry x="2642" y="2165" width="40" height="50" as="geometry" />
        </mxCell>
        <mxCell id="3SxP4JErZeRJ_X0oeSa_-476" value="" style="fontColor=#ffffff;verticalAlign=top;verticalLabelPosition=bottom;labelPosition=center;align=center;html=1;outlineConnect=0;fillColor=#000000;strokeColor=#000000;gradientDirection=north;strokeWidth=2;shape=mxgraph.networks.phone_1;direction=south;container=0;" vertex="1" parent="1">
          <mxGeometry x="2648" y="2220" width="15" height="15" as="geometry" />
        </mxCell>
        <mxCell id="3SxP4JErZeRJ_X0oeSa_-477" value="" style="verticalLabelPosition=bottom;html=1;verticalAlign=top;align=center;shape=mxgraph.floorplan.office_chair;shadow=0;direction=south;container=0;" vertex="1" parent="1">
          <mxGeometry x="2620" y="2245" width="43" height="40" as="geometry" />
        </mxCell>
        <mxCell id="3SxP4JErZeRJ_X0oeSa_-478" value="" style="verticalLabelPosition=bottom;html=1;verticalAlign=top;align=center;shape=mxgraph.floorplan.workstation;shadow=0;flipV=1;direction=south;container=0;" vertex="1" parent="1">
          <mxGeometry x="2642" y="2240" width="40" height="50" as="geometry" />
        </mxCell>
        <mxCell id="3SxP4JErZeRJ_X0oeSa_-479" value="" style="fontColor=#ffffff;verticalAlign=top;verticalLabelPosition=bottom;labelPosition=center;align=center;html=1;outlineConnect=0;fillColor=#000000;strokeColor=#000000;gradientDirection=north;strokeWidth=2;shape=mxgraph.networks.phone_1;direction=south;container=0;" vertex="1" parent="1">
          <mxGeometry x="2648" y="2290" width="15" height="15" as="geometry" />
        </mxCell>
        <mxCell id="3SxP4JErZeRJ_X0oeSa_-483" value="" style="verticalLabelPosition=bottom;html=1;verticalAlign=top;align=center;shape=mxgraph.floorplan.office_chair;shadow=0;direction=south;container=0;" vertex="1" parent="1">
          <mxGeometry x="2620" y="2459.25" width="43" height="40" as="geometry" />
        </mxCell>
        <mxCell id="3SxP4JErZeRJ_X0oeSa_-484" value="" style="verticalLabelPosition=bottom;html=1;verticalAlign=top;align=center;shape=mxgraph.floorplan.workstation;shadow=0;flipV=1;direction=south;container=0;" vertex="1" parent="1">
          <mxGeometry x="2642" y="2454.25" width="40" height="50" as="geometry" />
        </mxCell>
        <mxCell id="3SxP4JErZeRJ_X0oeSa_-485" value="" style="fontColor=#ffffff;verticalAlign=top;verticalLabelPosition=bottom;labelPosition=center;align=center;html=1;outlineConnect=0;fillColor=#000000;strokeColor=#000000;gradientDirection=north;strokeWidth=2;shape=mxgraph.networks.phone_1;direction=south;container=0;" vertex="1" parent="1">
          <mxGeometry x="2648" y="2509.25" width="15" height="15" as="geometry" />
        </mxCell>
        <mxCell id="3SxP4JErZeRJ_X0oeSa_-486" value="" style="verticalLabelPosition=bottom;html=1;verticalAlign=top;align=center;shape=mxgraph.floorplan.office_chair;shadow=0;direction=south;container=0;" vertex="1" parent="1">
          <mxGeometry x="2620" y="2534.25" width="43" height="40" as="geometry" />
        </mxCell>
        <mxCell id="3SxP4JErZeRJ_X0oeSa_-487" value="" style="verticalLabelPosition=bottom;html=1;verticalAlign=top;align=center;shape=mxgraph.floorplan.workstation;shadow=0;flipV=1;direction=south;container=0;" vertex="1" parent="1">
          <mxGeometry x="2642" y="2529.25" width="40" height="50" as="geometry" />
        </mxCell>
        <mxCell id="3SxP4JErZeRJ_X0oeSa_-488" value="" style="fontColor=#ffffff;verticalAlign=top;verticalLabelPosition=bottom;labelPosition=center;align=center;html=1;outlineConnect=0;fillColor=#000000;strokeColor=#000000;gradientDirection=north;strokeWidth=2;shape=mxgraph.networks.phone_1;direction=south;container=0;" vertex="1" parent="1">
          <mxGeometry x="2648" y="2584.25" width="15" height="15" as="geometry" />
        </mxCell>
        <mxCell id="3SxP4JErZeRJ_X0oeSa_-489" value="" style="verticalLabelPosition=bottom;html=1;verticalAlign=top;align=center;shape=mxgraph.floorplan.office_chair;shadow=0;direction=south;container=0;" vertex="1" parent="1">
          <mxGeometry x="2620" y="2609.25" width="43" height="40" as="geometry" />
        </mxCell>
        <mxCell id="3SxP4JErZeRJ_X0oeSa_-490" value="" style="verticalLabelPosition=bottom;html=1;verticalAlign=top;align=center;shape=mxgraph.floorplan.workstation;shadow=0;flipV=1;direction=south;container=0;" vertex="1" parent="1">
          <mxGeometry x="2642" y="2604.25" width="40" height="50" as="geometry" />
        </mxCell>
        <mxCell id="3SxP4JErZeRJ_X0oeSa_-491" value="" style="fontColor=#ffffff;verticalAlign=top;verticalLabelPosition=bottom;labelPosition=center;align=center;html=1;outlineConnect=0;fillColor=#000000;strokeColor=#000000;gradientDirection=north;strokeWidth=2;shape=mxgraph.networks.phone_1;direction=south;container=0;" vertex="1" parent="1">
          <mxGeometry x="2648" y="2659.25" width="15" height="15" as="geometry" />
        </mxCell>
        <mxCell id="3SxP4JErZeRJ_X0oeSa_-492" value="" style="verticalLabelPosition=bottom;html=1;verticalAlign=top;align=center;shape=mxgraph.floorplan.printer;direction=east;container=0;" vertex="1" parent="1">
          <mxGeometry x="2660" y="2407" width="40" height="33" as="geometry" />
        </mxCell>
        <mxCell id="3SxP4JErZeRJ_X0oeSa_-494" value="" style="verticalLabelPosition=bottom;html=1;verticalAlign=top;align=center;shape=mxgraph.floorplan.office_chair;shadow=0;direction=north;container=0;" vertex="1" parent="1">
          <mxGeometry x="2062" y="2630" width="43" height="40" as="geometry" />
        </mxCell>
        <mxCell id="3SxP4JErZeRJ_X0oeSa_-495" value="" style="verticalLabelPosition=bottom;html=1;verticalAlign=top;align=center;shape=mxgraph.floorplan.workstation;shadow=0;flipV=1;direction=north;container=0;" vertex="1" parent="1">
          <mxGeometry x="2042" y="2625" width="40" height="50" as="geometry" />
        </mxCell>
        <mxCell id="3SxP4JErZeRJ_X0oeSa_-496" value="" style="fontColor=#ffffff;verticalAlign=top;verticalLabelPosition=bottom;labelPosition=center;align=center;html=1;outlineConnect=0;fillColor=#000000;strokeColor=#000000;gradientDirection=north;strokeWidth=2;shape=mxgraph.networks.phone_1;direction=north;container=0;" vertex="1" parent="1">
          <mxGeometry x="2062" y="2680" width="15" height="15" as="geometry" />
        </mxCell>
        <mxCell id="3SxP4JErZeRJ_X0oeSa_-500" value="" style="verticalLabelPosition=bottom;html=1;verticalAlign=top;align=center;shape=mxgraph.floorplan.workstation;shadow=0;flipV=1;direction=east;container=0;" vertex="1" parent="1">
          <mxGeometry x="1972.5" y="2880" width="50" height="40" as="geometry" />
        </mxCell>
        <mxCell id="3SxP4JErZeRJ_X0oeSa_-501" value="" style="fontColor=#ffffff;verticalAlign=top;verticalLabelPosition=bottom;labelPosition=center;align=center;html=1;outlineConnect=0;fillColor=#000000;strokeColor=#000000;gradientDirection=north;strokeWidth=2;shape=mxgraph.networks.phone_1;direction=west;container=0;" vertex="1" parent="1">
          <mxGeometry x="2025" y="2888" width="15" height="15" as="geometry" />
        </mxCell>
        <mxCell id="3SxP4JErZeRJ_X0oeSa_-505" value="" style="verticalLabelPosition=bottom;html=1;verticalAlign=top;align=center;shape=mxgraph.floorplan.office_chair;shadow=0;direction=west;container=0;" vertex="1" parent="1">
          <mxGeometry x="2057.5" y="2860" width="40" height="43" as="geometry" />
        </mxCell>
        <mxCell id="3SxP4JErZeRJ_X0oeSa_-506" value="" style="verticalLabelPosition=bottom;html=1;verticalAlign=top;align=center;shape=mxgraph.floorplan.workstation;shadow=0;flipV=1;direction=east;container=0;" vertex="1" parent="1">
          <mxGeometry x="2052.5" y="2880" width="50" height="40" as="geometry" />
        </mxCell>
        <mxCell id="3SxP4JErZeRJ_X0oeSa_-507" value="" style="fontColor=#ffffff;verticalAlign=top;verticalLabelPosition=bottom;labelPosition=center;align=center;html=1;outlineConnect=0;fillColor=#000000;strokeColor=#000000;gradientDirection=north;strokeWidth=2;shape=mxgraph.networks.phone_1;direction=west;container=0;" vertex="1" parent="1">
          <mxGeometry x="2105" y="2888" width="15" height="15" as="geometry" />
        </mxCell>
        <mxCell id="3SxP4JErZeRJ_X0oeSa_-511" value="" style="verticalLabelPosition=bottom;html=1;verticalAlign=top;align=center;shape=mxgraph.floorplan.office_chair;shadow=0;direction=west;container=0;" vertex="1" parent="1">
          <mxGeometry x="2384" y="2860" width="40" height="43" as="geometry" />
        </mxCell>
        <mxCell id="3SxP4JErZeRJ_X0oeSa_-512" value="" style="verticalLabelPosition=bottom;html=1;verticalAlign=top;align=center;shape=mxgraph.floorplan.workstation;shadow=0;flipV=1;direction=east;container=0;" vertex="1" parent="1">
          <mxGeometry x="2379" y="2880" width="50" height="40" as="geometry" />
        </mxCell>
        <mxCell id="3SxP4JErZeRJ_X0oeSa_-513" value="" style="fontColor=#ffffff;verticalAlign=top;verticalLabelPosition=bottom;labelPosition=center;align=center;html=1;outlineConnect=0;fillColor=#000000;strokeColor=#000000;gradientDirection=north;strokeWidth=2;shape=mxgraph.networks.phone_1;direction=west;container=0;" vertex="1" parent="1">
          <mxGeometry x="2363" y="2888" width="15" height="15" as="geometry" />
        </mxCell>
        <mxCell id="3SxP4JErZeRJ_X0oeSa_-514" value="" style="verticalLabelPosition=bottom;html=1;verticalAlign=top;align=center;shape=mxgraph.floorplan.office_chair;shadow=0;direction=west;container=0;" vertex="1" parent="1">
          <mxGeometry x="2454" y="2860" width="40" height="43" as="geometry" />
        </mxCell>
        <mxCell id="3SxP4JErZeRJ_X0oeSa_-515" value="" style="verticalLabelPosition=bottom;html=1;verticalAlign=top;align=center;shape=mxgraph.floorplan.workstation;shadow=0;flipV=1;direction=east;container=0;" vertex="1" parent="1">
          <mxGeometry x="2449" y="2880" width="50" height="40" as="geometry" />
        </mxCell>
        <mxCell id="3SxP4JErZeRJ_X0oeSa_-516" value="" style="fontColor=#ffffff;verticalAlign=top;verticalLabelPosition=bottom;labelPosition=center;align=center;html=1;outlineConnect=0;fillColor=#000000;strokeColor=#000000;gradientDirection=north;strokeWidth=2;shape=mxgraph.networks.phone_1;direction=west;container=0;" vertex="1" parent="1">
          <mxGeometry x="2514" y="2888" width="15" height="15" as="geometry" />
        </mxCell>
        <mxCell id="3SxP4JErZeRJ_X0oeSa_-517" value="" style="verticalLabelPosition=bottom;html=1;verticalAlign=top;align=center;shape=mxgraph.floorplan.office_chair;shadow=0;direction=west;container=0;" vertex="1" parent="1">
          <mxGeometry x="2534" y="2860" width="40" height="43" as="geometry" />
        </mxCell>
        <mxCell id="3SxP4JErZeRJ_X0oeSa_-518" value="" style="verticalLabelPosition=bottom;html=1;verticalAlign=top;align=center;shape=mxgraph.floorplan.workstation;shadow=0;flipV=1;direction=east;container=0;" vertex="1" parent="1">
          <mxGeometry x="2529" y="2880" width="50" height="40" as="geometry" />
        </mxCell>
        <mxCell id="3SxP4JErZeRJ_X0oeSa_-519" value="" style="fontColor=#ffffff;verticalAlign=top;verticalLabelPosition=bottom;labelPosition=center;align=center;html=1;outlineConnect=0;fillColor=#000000;strokeColor=#000000;gradientDirection=north;strokeWidth=2;shape=mxgraph.networks.phone_1;direction=west;container=0;" vertex="1" parent="1">
          <mxGeometry x="1940" y="2888" width="15" height="15" as="geometry" />
        </mxCell>
        <mxCell id="3SxP4JErZeRJ_X0oeSa_-520" value="" style="verticalLabelPosition=bottom;html=1;verticalAlign=top;align=center;shape=mxgraph.floorplan.office_chair;shadow=0;direction=west;container=0;" vertex="1" parent="1">
          <mxGeometry x="1895" y="2860" width="40" height="43" as="geometry" />
        </mxCell>
        <mxCell id="3SxP4JErZeRJ_X0oeSa_-521" value="" style="verticalLabelPosition=bottom;html=1;verticalAlign=top;align=center;shape=mxgraph.floorplan.workstation;shadow=0;flipV=1;direction=east;container=0;" vertex="1" parent="1">
          <mxGeometry x="1890" y="2880" width="50" height="40" as="geometry" />
        </mxCell>
        <mxCell id="3SxP4JErZeRJ_X0oeSa_-522" value="" style="fontColor=#ffffff;verticalAlign=top;verticalLabelPosition=bottom;labelPosition=center;align=center;html=1;outlineConnect=0;fillColor=#000000;strokeColor=#000000;gradientDirection=north;strokeWidth=2;shape=mxgraph.networks.phone_1;direction=west;container=0;" vertex="1" parent="1">
          <mxGeometry x="2434" y="2888" width="15" height="15" as="geometry" />
        </mxCell>
        <mxCell id="3SxP4JErZeRJ_X0oeSa_-528" value="" style="verticalLabelPosition=bottom;html=1;verticalAlign=top;align=center;shape=mxgraph.floorplan.office_chair;shadow=0;direction=north;container=0;" vertex="1" parent="1">
          <mxGeometry x="2062" y="2709.25" width="43" height="40" as="geometry" />
        </mxCell>
        <mxCell id="3SxP4JErZeRJ_X0oeSa_-529" value="" style="verticalLabelPosition=bottom;html=1;verticalAlign=top;align=center;shape=mxgraph.floorplan.workstation;shadow=0;flipV=1;direction=north;container=0;" vertex="1" parent="1">
          <mxGeometry x="2042" y="2704.25" width="40" height="50" as="geometry" />
        </mxCell>
        <mxCell id="3SxP4JErZeRJ_X0oeSa_-530" value="" style="fontColor=#ffffff;verticalAlign=top;verticalLabelPosition=bottom;labelPosition=center;align=center;html=1;outlineConnect=0;fillColor=#000000;strokeColor=#000000;gradientDirection=north;strokeWidth=2;shape=mxgraph.networks.phone_1;direction=north;container=0;" vertex="1" parent="1">
          <mxGeometry x="2062" y="2759.25" width="15" height="15" as="geometry" />
        </mxCell>
        <mxCell id="3SxP4JErZeRJ_X0oeSa_-532" value="" style="verticalLabelPosition=bottom;html=1;verticalAlign=top;align=center;shape=mxgraph.floorplan.office_chair;shadow=0;direction=north;container=0;" vertex="1" parent="1">
          <mxGeometry x="1820" y="2465" width="43" height="40" as="geometry" />
        </mxCell>
        <mxCell id="3SxP4JErZeRJ_X0oeSa_-533" value="" style="shape=rect;shadow=0;html=1;" vertex="1" parent="1">
          <mxGeometry x="1760" y="2400" width="80" height="380" as="geometry" />
        </mxCell>
        <mxCell id="3SxP4JErZeRJ_X0oeSa_-534" value="" style="verticalLabelPosition=bottom;html=1;verticalAlign=top;align=center;shape=mxgraph.floorplan.workstation;shadow=0;flipV=1;direction=north;container=0;" vertex="1" parent="1">
          <mxGeometry x="1800" y="2460" width="40" height="50" as="geometry" />
        </mxCell>
        <mxCell id="3SxP4JErZeRJ_X0oeSa_-535" value="" style="fontColor=#ffffff;verticalAlign=top;verticalLabelPosition=bottom;labelPosition=center;align=center;html=1;outlineConnect=0;fillColor=#000000;strokeColor=#000000;gradientDirection=north;strokeWidth=2;shape=mxgraph.networks.phone_1;direction=north;container=0;" vertex="1" parent="1">
          <mxGeometry x="1820" y="2515" width="15" height="15" as="geometry" />
        </mxCell>
        <mxCell id="3SxP4JErZeRJ_X0oeSa_-536" value="" style="verticalLabelPosition=bottom;html=1;verticalAlign=top;align=center;shape=mxgraph.floorplan.office_chair;shadow=0;direction=north;container=0;" vertex="1" parent="1">
          <mxGeometry x="1820" y="2550" width="43" height="40" as="geometry" />
        </mxCell>
        <mxCell id="3SxP4JErZeRJ_X0oeSa_-537" value="" style="verticalLabelPosition=bottom;html=1;verticalAlign=top;align=center;shape=mxgraph.floorplan.workstation;shadow=0;flipV=1;direction=north;container=0;" vertex="1" parent="1">
          <mxGeometry x="1800" y="2545" width="40" height="50" as="geometry" />
        </mxCell>
        <mxCell id="3SxP4JErZeRJ_X0oeSa_-538" value="" style="fontColor=#ffffff;verticalAlign=top;verticalLabelPosition=bottom;labelPosition=center;align=center;html=1;outlineConnect=0;fillColor=#000000;strokeColor=#000000;gradientDirection=north;strokeWidth=2;shape=mxgraph.networks.phone_1;direction=north;container=0;" vertex="1" parent="1">
          <mxGeometry x="1820" y="2600" width="15" height="15" as="geometry" />
        </mxCell>
        <mxCell id="3SxP4JErZeRJ_X0oeSa_-539" value="" style="verticalLabelPosition=bottom;html=1;verticalAlign=top;align=center;shape=mxgraph.floorplan.office_chair;shadow=0;direction=north;container=0;" vertex="1" parent="1">
          <mxGeometry x="1820" y="2630" width="43" height="40" as="geometry" />
        </mxCell>
        <mxCell id="3SxP4JErZeRJ_X0oeSa_-540" value="" style="verticalLabelPosition=bottom;html=1;verticalAlign=top;align=center;shape=mxgraph.floorplan.workstation;shadow=0;flipV=1;direction=north;container=0;" vertex="1" parent="1">
          <mxGeometry x="1800" y="2625" width="40" height="50" as="geometry" />
        </mxCell>
        <mxCell id="3SxP4JErZeRJ_X0oeSa_-541" value="" style="fontColor=#ffffff;verticalAlign=top;verticalLabelPosition=bottom;labelPosition=center;align=center;html=1;outlineConnect=0;fillColor=#000000;strokeColor=#000000;gradientDirection=north;strokeWidth=2;shape=mxgraph.networks.phone_1;direction=north;container=0;" vertex="1" parent="1">
          <mxGeometry x="1820" y="2680" width="15" height="15" as="geometry" />
        </mxCell>
        <mxCell id="3SxP4JErZeRJ_X0oeSa_-543" value="" style="verticalLabelPosition=bottom;html=1;verticalAlign=top;align=center;shape=mxgraph.floorplan.office_chair;shadow=0;direction=north;container=0;" vertex="1" parent="1">
          <mxGeometry x="1820" y="2709.25" width="43" height="40" as="geometry" />
        </mxCell>
        <mxCell id="3SxP4JErZeRJ_X0oeSa_-544" value="" style="verticalLabelPosition=bottom;html=1;verticalAlign=top;align=center;shape=mxgraph.floorplan.workstation;shadow=0;flipV=1;direction=north;container=0;" vertex="1" parent="1">
          <mxGeometry x="1800" y="2704.25" width="40" height="50" as="geometry" />
        </mxCell>
        <mxCell id="3SxP4JErZeRJ_X0oeSa_-545" value="" style="fontColor=#ffffff;verticalAlign=top;verticalLabelPosition=bottom;labelPosition=center;align=center;html=1;outlineConnect=0;fillColor=#000000;strokeColor=#000000;gradientDirection=north;strokeWidth=2;shape=mxgraph.networks.phone_1;direction=north;container=0;" vertex="1" parent="1">
          <mxGeometry x="1820" y="2759.25" width="15" height="15" as="geometry" />
        </mxCell>
        <mxCell id="3SxP4JErZeRJ_X0oeSa_-546" value="" style="verticalLabelPosition=bottom;html=1;verticalAlign=top;align=center;shape=mxgraph.floorplan.office_chair;shadow=0;direction=north;container=0;" vertex="1" parent="1">
          <mxGeometry x="1580" y="2465" width="43" height="40" as="geometry" />
        </mxCell>
        <mxCell id="3SxP4JErZeRJ_X0oeSa_-547" value="" style="shape=rect;shadow=0;html=1;" vertex="1" parent="1">
          <mxGeometry x="1520" y="2400" width="80" height="380" as="geometry" />
        </mxCell>
        <mxCell id="3SxP4JErZeRJ_X0oeSa_-548" value="" style="verticalLabelPosition=bottom;html=1;verticalAlign=top;align=center;shape=mxgraph.floorplan.workstation;shadow=0;flipV=1;direction=north;container=0;" vertex="1" parent="1">
          <mxGeometry x="1560" y="2460" width="40" height="50" as="geometry" />
        </mxCell>
        <mxCell id="3SxP4JErZeRJ_X0oeSa_-549" value="" style="fontColor=#ffffff;verticalAlign=top;verticalLabelPosition=bottom;labelPosition=center;align=center;html=1;outlineConnect=0;fillColor=#000000;strokeColor=#000000;gradientDirection=north;strokeWidth=2;shape=mxgraph.networks.phone_1;direction=north;container=0;" vertex="1" parent="1">
          <mxGeometry x="1580" y="2515" width="15" height="15" as="geometry" />
        </mxCell>
        <mxCell id="3SxP4JErZeRJ_X0oeSa_-550" value="" style="verticalLabelPosition=bottom;html=1;verticalAlign=top;align=center;shape=mxgraph.floorplan.office_chair;shadow=0;direction=north;container=0;" vertex="1" parent="1">
          <mxGeometry x="1580" y="2550" width="43" height="40" as="geometry" />
        </mxCell>
        <mxCell id="3SxP4JErZeRJ_X0oeSa_-551" value="" style="verticalLabelPosition=bottom;html=1;verticalAlign=top;align=center;shape=mxgraph.floorplan.workstation;shadow=0;flipV=1;direction=north;container=0;" vertex="1" parent="1">
          <mxGeometry x="1560" y="2545" width="40" height="50" as="geometry" />
        </mxCell>
        <mxCell id="3SxP4JErZeRJ_X0oeSa_-552" value="" style="fontColor=#ffffff;verticalAlign=top;verticalLabelPosition=bottom;labelPosition=center;align=center;html=1;outlineConnect=0;fillColor=#000000;strokeColor=#000000;gradientDirection=north;strokeWidth=2;shape=mxgraph.networks.phone_1;direction=north;container=0;" vertex="1" parent="1">
          <mxGeometry x="1580" y="2600" width="15" height="15" as="geometry" />
        </mxCell>
        <mxCell id="3SxP4JErZeRJ_X0oeSa_-553" value="" style="verticalLabelPosition=bottom;html=1;verticalAlign=top;align=center;shape=mxgraph.floorplan.office_chair;shadow=0;direction=north;container=0;" vertex="1" parent="1">
          <mxGeometry x="1580" y="2630" width="43" height="40" as="geometry" />
        </mxCell>
        <mxCell id="3SxP4JErZeRJ_X0oeSa_-554" value="" style="verticalLabelPosition=bottom;html=1;verticalAlign=top;align=center;shape=mxgraph.floorplan.workstation;shadow=0;flipV=1;direction=north;container=0;" vertex="1" parent="1">
          <mxGeometry x="1560" y="2625" width="40" height="50" as="geometry" />
        </mxCell>
        <mxCell id="3SxP4JErZeRJ_X0oeSa_-555" value="" style="fontColor=#ffffff;verticalAlign=top;verticalLabelPosition=bottom;labelPosition=center;align=center;html=1;outlineConnect=0;fillColor=#000000;strokeColor=#000000;gradientDirection=north;strokeWidth=2;shape=mxgraph.networks.phone_1;direction=north;container=0;" vertex="1" parent="1">
          <mxGeometry x="1580" y="2680" width="15" height="15" as="geometry" />
        </mxCell>
        <mxCell id="3SxP4JErZeRJ_X0oeSa_-557" value="" style="verticalLabelPosition=bottom;html=1;verticalAlign=top;align=center;shape=mxgraph.floorplan.office_chair;shadow=0;direction=north;container=0;" vertex="1" parent="1">
          <mxGeometry x="1580" y="2709.25" width="43" height="40" as="geometry" />
        </mxCell>
        <mxCell id="3SxP4JErZeRJ_X0oeSa_-558" value="" style="verticalLabelPosition=bottom;html=1;verticalAlign=top;align=center;shape=mxgraph.floorplan.workstation;shadow=0;flipV=1;direction=north;container=0;" vertex="1" parent="1">
          <mxGeometry x="1560" y="2704.25" width="40" height="50" as="geometry" />
        </mxCell>
        <mxCell id="3SxP4JErZeRJ_X0oeSa_-559" value="" style="fontColor=#ffffff;verticalAlign=top;verticalLabelPosition=bottom;labelPosition=center;align=center;html=1;outlineConnect=0;fillColor=#000000;strokeColor=#000000;gradientDirection=north;strokeWidth=2;shape=mxgraph.networks.phone_1;direction=north;container=0;" vertex="1" parent="1">
          <mxGeometry x="1580" y="2759.25" width="15" height="15" as="geometry" />
        </mxCell>
        <mxCell id="3SxP4JErZeRJ_X0oeSa_-560" value="" style="verticalLabelPosition=bottom;html=1;verticalAlign=top;align=center;shape=mxgraph.floorplan.office_chair;shadow=0;direction=south;container=0;" vertex="1" parent="1">
          <mxGeometry x="2379" y="2693.5" width="43" height="40" as="geometry" />
        </mxCell>
        <mxCell id="3SxP4JErZeRJ_X0oeSa_-561" value="" style="verticalLabelPosition=bottom;html=1;verticalAlign=top;align=center;shape=mxgraph.floorplan.workstation;shadow=0;flipV=1;direction=south;container=0;" vertex="1" parent="1">
          <mxGeometry x="2401" y="2688.5" width="40" height="50" as="geometry" />
        </mxCell>
        <mxCell id="3SxP4JErZeRJ_X0oeSa_-562" value="" style="fontColor=#ffffff;verticalAlign=top;verticalLabelPosition=bottom;labelPosition=center;align=center;html=1;outlineConnect=0;fillColor=#000000;strokeColor=#000000;gradientDirection=north;strokeWidth=2;shape=mxgraph.networks.phone_1;direction=south;container=0;" vertex="1" parent="1">
          <mxGeometry x="2407" y="2743.5" width="15" height="15" as="geometry" />
        </mxCell>
        <mxCell id="3SxP4JErZeRJ_X0oeSa_-563" value="" style="verticalLabelPosition=bottom;html=1;verticalAlign=top;align=center;shape=mxgraph.floorplan.office_chair;shadow=0;direction=south;container=0;" vertex="1" parent="1">
          <mxGeometry x="2620" y="2682.75" width="43" height="40" as="geometry" />
        </mxCell>
        <mxCell id="3SxP4JErZeRJ_X0oeSa_-564" value="" style="verticalLabelPosition=bottom;html=1;verticalAlign=top;align=center;shape=mxgraph.floorplan.workstation;shadow=0;flipV=1;direction=south;container=0;" vertex="1" parent="1">
          <mxGeometry x="2642" y="2677.75" width="40" height="50" as="geometry" />
        </mxCell>
        <mxCell id="3SxP4JErZeRJ_X0oeSa_-565" value="" style="fontColor=#ffffff;verticalAlign=top;verticalLabelPosition=bottom;labelPosition=center;align=center;html=1;outlineConnect=0;fillColor=#000000;strokeColor=#000000;gradientDirection=north;strokeWidth=2;shape=mxgraph.networks.phone_1;direction=south;container=0;" vertex="1" parent="1">
          <mxGeometry x="2648" y="2732.75" width="15" height="15" as="geometry" />
        </mxCell>
        <mxCell id="3SxP4JErZeRJ_X0oeSa_-594" value="" style="verticalLabelPosition=bottom;html=1;verticalAlign=top;align=center;shape=mxgraph.floorplan.printer;direction=east;container=0;" vertex="1" parent="1">
          <mxGeometry x="2421" y="2407" width="40" height="33" as="geometry" />
        </mxCell>
        <mxCell id="3SxP4JErZeRJ_X0oeSa_-595" value="" style="shape=rect;shadow=0;html=1;" vertex="1" parent="1">
          <mxGeometry x="2880" y="2399.25" width="80" height="360" as="geometry" />
        </mxCell>
        <mxCell id="3SxP4JErZeRJ_X0oeSa_-596" value="" style="verticalLabelPosition=bottom;html=1;verticalAlign=top;align=center;shape=mxgraph.floorplan.office_chair;shadow=0;direction=south;container=0;" vertex="1" parent="1">
          <mxGeometry x="2860" y="2459.25" width="43" height="40" as="geometry" />
        </mxCell>
        <mxCell id="3SxP4JErZeRJ_X0oeSa_-597" value="" style="verticalLabelPosition=bottom;html=1;verticalAlign=top;align=center;shape=mxgraph.floorplan.workstation;shadow=0;flipV=1;direction=south;container=0;" vertex="1" parent="1">
          <mxGeometry x="2882" y="2454.25" width="40" height="50" as="geometry" />
        </mxCell>
        <mxCell id="3SxP4JErZeRJ_X0oeSa_-598" value="" style="fontColor=#ffffff;verticalAlign=top;verticalLabelPosition=bottom;labelPosition=center;align=center;html=1;outlineConnect=0;fillColor=#000000;strokeColor=#000000;gradientDirection=north;strokeWidth=2;shape=mxgraph.networks.phone_1;direction=south;container=0;" vertex="1" parent="1">
          <mxGeometry x="2888" y="2509.25" width="15" height="15" as="geometry" />
        </mxCell>
        <mxCell id="3SxP4JErZeRJ_X0oeSa_-599" value="" style="verticalLabelPosition=bottom;html=1;verticalAlign=top;align=center;shape=mxgraph.floorplan.office_chair;shadow=0;direction=south;container=0;" vertex="1" parent="1">
          <mxGeometry x="2860" y="2534.25" width="43" height="40" as="geometry" />
        </mxCell>
        <mxCell id="3SxP4JErZeRJ_X0oeSa_-600" value="" style="verticalLabelPosition=bottom;html=1;verticalAlign=top;align=center;shape=mxgraph.floorplan.workstation;shadow=0;flipV=1;direction=south;container=0;" vertex="1" parent="1">
          <mxGeometry x="2882" y="2529.25" width="40" height="50" as="geometry" />
        </mxCell>
        <mxCell id="3SxP4JErZeRJ_X0oeSa_-601" value="" style="fontColor=#ffffff;verticalAlign=top;verticalLabelPosition=bottom;labelPosition=center;align=center;html=1;outlineConnect=0;fillColor=#000000;strokeColor=#000000;gradientDirection=north;strokeWidth=2;shape=mxgraph.networks.phone_1;direction=south;container=0;" vertex="1" parent="1">
          <mxGeometry x="2888" y="2584.25" width="15" height="15" as="geometry" />
        </mxCell>
        <mxCell id="3SxP4JErZeRJ_X0oeSa_-602" value="" style="verticalLabelPosition=bottom;html=1;verticalAlign=top;align=center;shape=mxgraph.floorplan.office_chair;shadow=0;direction=south;container=0;" vertex="1" parent="1">
          <mxGeometry x="2860" y="2609.25" width="43" height="40" as="geometry" />
        </mxCell>
        <mxCell id="3SxP4JErZeRJ_X0oeSa_-603" value="" style="verticalLabelPosition=bottom;html=1;verticalAlign=top;align=center;shape=mxgraph.floorplan.workstation;shadow=0;flipV=1;direction=south;container=0;" vertex="1" parent="1">
          <mxGeometry x="2882" y="2604.25" width="40" height="50" as="geometry" />
        </mxCell>
        <mxCell id="3SxP4JErZeRJ_X0oeSa_-604" value="" style="fontColor=#ffffff;verticalAlign=top;verticalLabelPosition=bottom;labelPosition=center;align=center;html=1;outlineConnect=0;fillColor=#000000;strokeColor=#000000;gradientDirection=north;strokeWidth=2;shape=mxgraph.networks.phone_1;direction=south;container=0;" vertex="1" parent="1">
          <mxGeometry x="2888" y="2659.25" width="15" height="15" as="geometry" />
        </mxCell>
        <mxCell id="3SxP4JErZeRJ_X0oeSa_-605" value="" style="verticalLabelPosition=bottom;html=1;verticalAlign=top;align=center;shape=mxgraph.floorplan.printer;direction=east;container=0;" vertex="1" parent="1">
          <mxGeometry x="2900" y="2407" width="40" height="33" as="geometry" />
        </mxCell>
        <mxCell id="3SxP4JErZeRJ_X0oeSa_-606" value="" style="verticalLabelPosition=bottom;html=1;verticalAlign=top;align=center;shape=mxgraph.floorplan.office_chair;shadow=0;direction=south;container=0;" vertex="1" parent="1">
          <mxGeometry x="2860" y="2682.75" width="43" height="40" as="geometry" />
        </mxCell>
        <mxCell id="3SxP4JErZeRJ_X0oeSa_-607" value="" style="verticalLabelPosition=bottom;html=1;verticalAlign=top;align=center;shape=mxgraph.floorplan.workstation;shadow=0;flipV=1;direction=south;container=0;" vertex="1" parent="1">
          <mxGeometry x="2882" y="2677.75" width="40" height="50" as="geometry" />
        </mxCell>
        <mxCell id="3SxP4JErZeRJ_X0oeSa_-608" value="" style="fontColor=#ffffff;verticalAlign=top;verticalLabelPosition=bottom;labelPosition=center;align=center;html=1;outlineConnect=0;fillColor=#000000;strokeColor=#000000;gradientDirection=north;strokeWidth=2;shape=mxgraph.networks.phone_1;direction=south;container=0;" vertex="1" parent="1">
          <mxGeometry x="2888" y="2732.75" width="15" height="15" as="geometry" />
        </mxCell>
        <mxCell id="3SxP4JErZeRJ_X0oeSa_-609" value="" style="verticalLabelPosition=bottom;html=1;verticalAlign=top;align=center;shape=mxgraph.floorplan.printer;direction=east;container=0;" vertex="1" parent="1">
          <mxGeometry x="2022.5" y="2407" width="40" height="33" as="geometry" />
        </mxCell>
        <mxCell id="3SxP4JErZeRJ_X0oeSa_-610" value="" style="verticalLabelPosition=bottom;html=1;verticalAlign=top;align=center;shape=mxgraph.floorplan.printer;direction=east;container=0;" vertex="1" parent="1">
          <mxGeometry x="1780" y="2407" width="40" height="33" as="geometry" />
        </mxCell>
        <mxCell id="3SxP4JErZeRJ_X0oeSa_-611" value="" style="verticalLabelPosition=bottom;html=1;verticalAlign=top;align=center;shape=mxgraph.floorplan.printer;direction=east;container=0;" vertex="1" parent="1">
          <mxGeometry x="1540" y="2407" width="40" height="33" as="geometry" />
        </mxCell>
        <mxCell id="3SxP4JErZeRJ_X0oeSa_-612" value="" style="verticalLabelPosition=bottom;html=1;verticalAlign=top;align=center;shape=mxgraph.floorplan.printer;direction=east;container=0;" vertex="1" parent="1">
          <mxGeometry x="2649" y="2893.5" width="40" height="33" as="geometry" />
        </mxCell>
        <mxCell id="3SxP4JErZeRJ_X0oeSa_-613" value="" style="verticalLabelPosition=bottom;html=1;verticalAlign=top;align=center;shape=mxgraph.floorplan.printer;direction=east;container=0;" vertex="1" parent="1">
          <mxGeometry x="2594" y="2893.5" width="40" height="33" as="geometry" />
        </mxCell>
        <mxCell id="3SxP4JErZeRJ_X0oeSa_-614" value="" style="verticalLabelPosition=bottom;html=1;verticalAlign=top;align=center;shape=mxgraph.floorplan.printer;direction=east;container=0;" vertex="1" parent="1">
          <mxGeometry x="1835" y="2893.5" width="40" height="33" as="geometry" />
        </mxCell>
        <mxCell id="3SxP4JErZeRJ_X0oeSa_-615" value="" style="verticalLabelPosition=bottom;html=1;verticalAlign=top;align=center;shape=mxgraph.floorplan.printer;direction=east;container=0;" vertex="1" parent="1">
          <mxGeometry x="1780" y="2893.5" width="40" height="33" as="geometry" />
        </mxCell>
      </root>
    </mxGraphModel>
  </diagram>
</mxfile>
